<svg width="22" height="23" viewBox="0 0 22 23" fill="none" xmlns="http://www.w3.org/2000/svg">
<path d="M20.809 20.6829L20.8089 20.6826C20.0265 18.6328 18.6401 16.8688 16.8331 15.6243C15.0261 14.3798 12.8838 13.7135 10.6897 13.7135C8.49558 13.7135 6.35323 14.3798 4.54623 15.6243C2.73935 16.8687 1.35298 18.6325 0.570624 20.6822L20.809 20.6829ZM20.809 20.6829C21.0735 21.3747 20.5269 22.1547 19.6298 22.1547M20.809 20.6829L19.6298 22.1547M19.6298 22.1547H1.74957C0.853771 22.1547 0.307052 21.3756 0.570465 20.6826L19.6298 22.1547ZM14.3419 9.31493C13.3735 10.2833 12.0601 10.8273 10.6906 10.8273C9.32112 10.8273 8.00772 10.2833 7.03935 9.31493C6.07097 8.34656 5.52694 7.03316 5.52694 5.66367C5.52694 4.29418 6.07097 2.98078 7.03935 2.0124C8.00772 1.04403 9.32112 0.5 10.6906 0.5C12.0601 0.5 13.3735 1.04403 14.3419 2.0124C15.3103 2.98078 15.8543 4.29418 15.8543 5.66367C15.8543 7.03316 15.3103 8.34656 14.3419 9.31493Z" stroke="#AEB6BE"/>
</svg>
